<mxfile host="app.diagrams.net" modified="2020-12-05T04:04:05.203Z" agent="5.0 (Windows NT 10.0; Win64; x64) AppleWebKit/537.36 (KHTML, like Gecko) Chrome/86.0.4240.198 Safari/537.36" etag="ZedbX2Q2AXdMi4pquuNj" version="13.10.4" type="github">
  <diagram id="cwe65pxhitnzSZ8GmUWx" name="Page-1">
    <mxGraphModel dx="1221" dy="734" grid="1" gridSize="10" guides="1" tooltips="1" connect="1" arrows="1" fold="1" page="1" pageScale="1" pageWidth="827" pageHeight="1169" math="0" shadow="0">
      <root>
        <mxCell id="0" />
        <mxCell id="1" parent="0" />
        <mxCell id="et4Qu4gKHP5Ylg-2PBbr-2" value="" style="shape=flexArrow;endArrow=classic;html=1;" edge="1" parent="1">
          <mxGeometry width="50" height="50" relative="1" as="geometry">
            <mxPoint x="280" y="150" as="sourcePoint" />
            <mxPoint x="170" y="150" as="targetPoint" />
            <Array as="points" />
          </mxGeometry>
        </mxCell>
        <mxCell id="et4Qu4gKHP5Ylg-2PBbr-3" value="" style="shape=flexArrow;endArrow=classic;html=1;" edge="1" parent="1">
          <mxGeometry width="50" height="50" relative="1" as="geometry">
            <mxPoint x="130" y="190" as="sourcePoint" />
            <mxPoint x="130" y="280" as="targetPoint" />
            <Array as="points" />
          </mxGeometry>
        </mxCell>
        <mxCell id="et4Qu4gKHP5Ylg-2PBbr-4" value="" style="shape=flexArrow;endArrow=classic;html=1;" edge="1" parent="1">
          <mxGeometry width="50" height="50" relative="1" as="geometry">
            <mxPoint x="180" y="290" as="sourcePoint" />
            <mxPoint x="280" y="290" as="targetPoint" />
            <Array as="points" />
          </mxGeometry>
        </mxCell>
        <mxCell id="et4Qu4gKHP5Ylg-2PBbr-5" value="&lt;font size=&quot;1&quot;&gt;&lt;b style=&quot;font-size: 17px&quot;&gt;CLOSED&lt;/b&gt;&lt;/font&gt;" style="rounded=1;whiteSpace=wrap;html=1;fillColor=#f0a30a;strokeColor=#BD7000;fontColor=#ffffff;" vertex="1" parent="1">
          <mxGeometry x="170" y="190" width="120" height="60" as="geometry" />
        </mxCell>
        <mxCell id="et4Qu4gKHP5Ylg-2PBbr-6" value="&lt;font style=&quot;font-size: 15px&quot;&gt;&lt;b&gt;客户端&lt;/b&gt;&lt;/font&gt;" style="text;html=1;strokeColor=none;fillColor=none;align=center;verticalAlign=middle;whiteSpace=wrap;rounded=0;" vertex="1" parent="1">
          <mxGeometry x="300" y="140" width="70" height="20" as="geometry" />
        </mxCell>
        <mxCell id="et4Qu4gKHP5Ylg-2PBbr-7" value="&lt;font style=&quot;font-size: 15px&quot;&gt;&lt;b&gt;scoket&lt;/b&gt;&lt;/font&gt;" style="text;html=1;strokeColor=none;fillColor=none;align=center;verticalAlign=middle;whiteSpace=wrap;rounded=0;" vertex="1" parent="1">
          <mxGeometry x="70" y="140" width="70" height="20" as="geometry" />
        </mxCell>
        <mxCell id="et4Qu4gKHP5Ylg-2PBbr-8" value="&lt;font style=&quot;font-size: 15px&quot;&gt;&lt;b&gt;connect&lt;/b&gt;&lt;/font&gt;" style="text;html=1;strokeColor=none;fillColor=none;align=center;verticalAlign=middle;whiteSpace=wrap;rounded=0;" vertex="1" parent="1">
          <mxGeometry x="70" y="300" width="70" height="20" as="geometry" />
        </mxCell>
        <mxCell id="et4Qu4gKHP5Ylg-2PBbr-9" value="&lt;font size=&quot;1&quot;&gt;&lt;b style=&quot;font-size: 17px&quot;&gt;CLOSED&lt;/b&gt;&lt;/font&gt;" style="rounded=1;whiteSpace=wrap;html=1;fillColor=#647687;strokeColor=#314354;fontColor=#ffffff;" vertex="1" parent="1">
          <mxGeometry x="560" y="190" width="120" height="60" as="geometry" />
        </mxCell>
        <mxCell id="et4Qu4gKHP5Ylg-2PBbr-10" value="&lt;span style=&quot;font-size: 15px&quot;&gt;&lt;b&gt;服务端&lt;/b&gt;&lt;/span&gt;" style="text;html=1;strokeColor=none;fillColor=none;align=center;verticalAlign=middle;whiteSpace=wrap;rounded=0;" vertex="1" parent="1">
          <mxGeometry x="510" y="140" width="70" height="20" as="geometry" />
        </mxCell>
        <mxCell id="et4Qu4gKHP5Ylg-2PBbr-11" value="" style="shape=flexArrow;endArrow=classic;html=1;" edge="1" parent="1">
          <mxGeometry width="50" height="50" relative="1" as="geometry">
            <mxPoint x="580" y="149.5" as="sourcePoint" />
            <mxPoint x="680" y="149.5" as="targetPoint" />
            <Array as="points" />
          </mxGeometry>
        </mxCell>
        <mxCell id="et4Qu4gKHP5Ylg-2PBbr-12" value="&lt;font style=&quot;font-size: 14px&quot;&gt;scoket&lt;br&gt;bind&lt;br&gt;listen&lt;br&gt;被动打开&lt;/font&gt;" style="text;html=1;align=center;verticalAlign=middle;resizable=0;points=[];autosize=1;" vertex="1" parent="1">
          <mxGeometry x="690" y="100" width="70" height="60" as="geometry" />
        </mxCell>
        <mxCell id="et4Qu4gKHP5Ylg-2PBbr-13" value="" style="shape=flexArrow;endArrow=classic;html=1;" edge="1" parent="1">
          <mxGeometry width="50" height="50" relative="1" as="geometry">
            <mxPoint x="720" y="175" as="sourcePoint" />
            <mxPoint x="720" y="265" as="targetPoint" />
            <Array as="points" />
          </mxGeometry>
        </mxCell>
        <mxCell id="et4Qu4gKHP5Ylg-2PBbr-14" value="&lt;font size=&quot;1&quot;&gt;&lt;b style=&quot;font-size: 17px&quot;&gt;SYN_SENT&lt;/b&gt;&lt;/font&gt;" style="rounded=1;whiteSpace=wrap;html=1;fillColor=#f0a30a;strokeColor=#BD7000;fontColor=#ffffff;" vertex="1" parent="1">
          <mxGeometry x="160" y="340" width="140" height="110" as="geometry" />
        </mxCell>
        <mxCell id="et4Qu4gKHP5Ylg-2PBbr-15" value="&lt;font size=&quot;1&quot;&gt;&lt;b style=&quot;font-size: 17px&quot;&gt;ESTABLISHED&lt;/b&gt;&lt;/font&gt;" style="rounded=1;whiteSpace=wrap;html=1;fillColor=#f0a30a;strokeColor=#BD7000;fontColor=#ffffff;" vertex="1" parent="1">
          <mxGeometry x="160" y="510" width="140" height="110" as="geometry" />
        </mxCell>
        <mxCell id="et4Qu4gKHP5Ylg-2PBbr-16" value="&lt;font size=&quot;1&quot;&gt;&lt;b style=&quot;font-size: 17px&quot;&gt;LISTEN&lt;/b&gt;&lt;/font&gt;" style="rounded=1;whiteSpace=wrap;html=1;fillColor=#647687;strokeColor=#314354;fontColor=#ffffff;" vertex="1" parent="1">
          <mxGeometry x="550" y="310" width="140" height="60" as="geometry" />
        </mxCell>
        <mxCell id="et4Qu4gKHP5Ylg-2PBbr-17" value="&lt;font size=&quot;1&quot;&gt;&lt;b style=&quot;font-size: 17px&quot;&gt;LISTEN&lt;/b&gt;&lt;/font&gt;" style="rounded=1;whiteSpace=wrap;html=1;fillColor=#647687;strokeColor=#314354;fontColor=#ffffff;" vertex="1" parent="1">
          <mxGeometry x="550" y="420" width="140" height="120" as="geometry" />
        </mxCell>
        <mxCell id="et4Qu4gKHP5Ylg-2PBbr-18" value="&lt;font size=&quot;1&quot;&gt;&lt;b style=&quot;font-size: 17px&quot;&gt;LISTEN&lt;/b&gt;&lt;/font&gt;" style="rounded=1;whiteSpace=wrap;html=1;fillColor=#647687;strokeColor=#314354;fontColor=#ffffff;" vertex="1" parent="1">
          <mxGeometry x="550" y="570" width="140" height="120" as="geometry" />
        </mxCell>
        <mxCell id="et4Qu4gKHP5Ylg-2PBbr-19" value="" style="rounded=1;whiteSpace=wrap;html=1;fillColor=#a20025;strokeColor=#6F0000;fontColor=#ffffff;" vertex="1" parent="1">
          <mxGeometry x="400" width="10" height="770" as="geometry" />
        </mxCell>
        <mxCell id="et4Qu4gKHP5Ylg-2PBbr-20" value="" style="endArrow=classic;html=1;exitX=1;exitY=0.5;exitDx=0;exitDy=0;" edge="1" parent="1" source="et4Qu4gKHP5Ylg-2PBbr-5">
          <mxGeometry width="50" height="50" relative="1" as="geometry">
            <mxPoint x="410" y="410" as="sourcePoint" />
            <mxPoint x="540" y="400" as="targetPoint" />
          </mxGeometry>
        </mxCell>
        <mxCell id="et4Qu4gKHP5Ylg-2PBbr-21" value="&lt;font style=&quot;font-size: 16px&quot;&gt;SYN&amp;nbsp; seq=x&lt;/font&gt;" style="edgeLabel;html=1;align=center;verticalAlign=middle;resizable=0;points=[];" vertex="1" connectable="0" parent="et4Qu4gKHP5Ylg-2PBbr-20">
          <mxGeometry x="0.0865" y="-2" relative="1" as="geometry">
            <mxPoint x="35.64" y="-19.2" as="offset" />
          </mxGeometry>
        </mxCell>
        <mxCell id="et4Qu4gKHP5Ylg-2PBbr-22" value="" style="endArrow=classic;html=1;" edge="1" parent="1">
          <mxGeometry width="50" height="50" relative="1" as="geometry">
            <mxPoint x="530" y="400" as="sourcePoint" />
            <mxPoint x="310" y="480" as="targetPoint" />
          </mxGeometry>
        </mxCell>
        <mxCell id="et4Qu4gKHP5Ylg-2PBbr-23" value="" style="endArrow=classic;html=1;" edge="1" parent="1">
          <mxGeometry width="50" height="50" relative="1" as="geometry">
            <mxPoint x="310" y="480" as="sourcePoint" />
            <mxPoint x="540" y="550" as="targetPoint" />
          </mxGeometry>
        </mxCell>
        <mxCell id="et4Qu4gKHP5Ylg-2PBbr-24" value="&lt;font style=&quot;font-size: 16px&quot;&gt;SYN-ACK&amp;nbsp; seq=y&amp;nbsp; ack=x+1&lt;/font&gt;" style="edgeLabel;html=1;align=center;verticalAlign=middle;resizable=0;points=[];" vertex="1" connectable="0" parent="1">
          <mxGeometry x="469.9976255707095" y="310.0019578990307" as="geometry">
            <mxPoint x="-29" y="135" as="offset" />
          </mxGeometry>
        </mxCell>
        <mxCell id="et4Qu4gKHP5Ylg-2PBbr-25" value="&lt;font style=&quot;font-size: 16px&quot;&gt;ACK seq=x+1&amp;nbsp; ack=y+1&lt;/font&gt;" style="edgeLabel;html=1;align=center;verticalAlign=middle;resizable=0;points=[];" vertex="1" connectable="0" parent="1">
          <mxGeometry x="469.9976255707095" y="395.0019578990307" as="geometry">
            <mxPoint x="-29" y="135" as="offset" />
          </mxGeometry>
        </mxCell>
        <mxCell id="et4Qu4gKHP5Ylg-2PBbr-27" value="&lt;font style=&quot;font-size: 15px&quot;&gt;&lt;b&gt;connect(返回)&lt;/b&gt;&lt;/font&gt;" style="text;html=1;strokeColor=none;fillColor=none;align=center;verticalAlign=middle;whiteSpace=wrap;rounded=0;" vertex="1" parent="1">
          <mxGeometry x="70" y="470" width="100" height="20" as="geometry" />
        </mxCell>
        <mxCell id="et4Qu4gKHP5Ylg-2PBbr-29" value="&lt;font style=&quot;font-size: 15px&quot;&gt;&lt;b&gt;accept阻塞&lt;/b&gt;&lt;/font&gt;" style="text;html=1;strokeColor=none;fillColor=none;align=center;verticalAlign=middle;whiteSpace=wrap;rounded=0;" vertex="1" parent="1">
          <mxGeometry x="700" y="377.5" width="100" height="35" as="geometry" />
        </mxCell>
        <mxCell id="et4Qu4gKHP5Ylg-2PBbr-30" value="&lt;font style=&quot;font-size: 15px&quot;&gt;&lt;b&gt;accept返回&lt;/b&gt;&lt;/font&gt;" style="text;html=1;strokeColor=none;fillColor=none;align=center;verticalAlign=middle;whiteSpace=wrap;rounded=0;" vertex="1" parent="1">
          <mxGeometry x="700" y="530" width="100" height="35" as="geometry" />
        </mxCell>
        <mxCell id="et4Qu4gKHP5Ylg-2PBbr-31" value="同步码（客户端和服务端分配生成）" style="text;html=1;strokeColor=none;fillColor=none;align=center;verticalAlign=middle;whiteSpace=wrap;rounded=0;" vertex="1" parent="1">
          <mxGeometry x="278" y="260" width="270" height="30" as="geometry" />
        </mxCell>
      </root>
    </mxGraphModel>
  </diagram>
</mxfile>
